<svg width="16" height="17" viewBox="0 0 16 17" fill="none" xmlns="http://www.w3.org/2000/svg">
<g id="Calendar">
<path id="Fill 1" fill-rule="evenodd" clip-rule="evenodd" d="M14.8749 6.92822H1.50687C1.19637 6.92822 0.944366 6.67622 0.944366 6.36572C0.944366 6.05522 1.19637 5.80322 1.50687 5.80322H14.8749C15.1854 5.80322 15.4374 6.05522 15.4374 6.36572C15.4374 6.67622 15.1854 6.92822 14.8749 6.92822Z" fill="#666666"/>
<path id="Fill 3" fill-rule="evenodd" clip-rule="evenodd" d="M11.5259 9.85721C11.2154 9.85721 10.9604 9.60521 10.9604 9.29471C10.9604 8.98421 11.2086 8.73221 11.5191 8.73221H11.5259C11.8364 8.73221 12.0884 8.98421 12.0884 9.29471C12.0884 9.60521 11.8364 9.85721 11.5259 9.85721Z" fill="#666666"/>
<path id="Fill 5" fill-rule="evenodd" clip-rule="evenodd" d="M8.19776 9.85721C7.88726 9.85721 7.63226 9.60521 7.63226 9.29471C7.63226 8.98421 7.88051 8.73221 8.19101 8.73221H8.19776C8.50826 8.73221 8.76026 8.98421 8.76026 9.29471C8.76026 9.60521 8.50826 9.85721 8.19776 9.85721Z" fill="#666666"/>
<path id="Fill 7" fill-rule="evenodd" clip-rule="evenodd" d="M4.86267 9.85721C4.55217 9.85721 4.29642 9.60521 4.29642 9.29471C4.29642 8.98421 4.54542 8.73221 4.85592 8.73221H4.86267C5.17317 8.73221 5.42517 8.98421 5.42517 9.29471C5.42517 9.60521 5.17317 9.85721 4.86267 9.85721Z" fill="#666666"/>
<path id="Fill 9" fill-rule="evenodd" clip-rule="evenodd" d="M11.5259 12.7722C11.2154 12.7722 10.9604 12.5202 10.9604 12.2097C10.9604 11.8992 11.2086 11.6472 11.5191 11.6472H11.5259C11.8364 11.6472 12.0884 11.8992 12.0884 12.2097C12.0884 12.5202 11.8364 12.7722 11.5259 12.7722Z" fill="#666666"/>
<path id="Fill 11" fill-rule="evenodd" clip-rule="evenodd" d="M8.19776 12.7722C7.88726 12.7722 7.63226 12.5202 7.63226 12.2097C7.63226 11.8992 7.88051 11.6472 8.19101 11.6472H8.19776C8.50826 11.6472 8.76026 11.8992 8.76026 12.2097C8.76026 12.5202 8.50826 12.7722 8.19776 12.7722Z" fill="#666666"/>
<path id="Fill 13" fill-rule="evenodd" clip-rule="evenodd" d="M4.86267 12.7722C4.55217 12.7722 4.29642 12.5202 4.29642 12.2097C4.29642 11.8992 4.54542 11.6472 4.85592 11.6472H4.86267C5.17317 11.6472 5.42517 11.8992 5.42517 12.2097C5.42517 12.5202 5.17317 12.7722 4.86267 12.7722Z" fill="#666666"/>
<path id="Fill 15" fill-rule="evenodd" clip-rule="evenodd" d="M11.2201 3.84325C10.9096 3.84325 10.6576 3.59125 10.6576 3.28075V0.8125C10.6576 0.502 10.9096 0.25 11.2201 0.25C11.5306 0.25 11.7826 0.502 11.7826 0.8125V3.28075C11.7826 3.59125 11.5306 3.84325 11.2201 3.84325Z" fill="#666666"/>
<path id="Fill 17" fill-rule="evenodd" clip-rule="evenodd" d="M5.16147 3.84325C4.85097 3.84325 4.59897 3.59125 4.59897 3.28075V0.8125C4.59897 0.502 4.85097 0.25 5.16147 0.25C5.47197 0.25 5.72397 0.502 5.72397 0.8125V3.28075C5.72397 3.59125 5.47197 3.84325 5.16147 3.84325Z" fill="#666666"/>
<g id="Group 21">
<mask id="mask0_402_283" style="mask-type:luminance" maskUnits="userSpaceOnUse" x="0" y="1" width="16" height="16">
<path id="Clip 20" fill-rule="evenodd" clip-rule="evenodd" d="M0.875 1.43433H15.5V16.375H0.875V1.43433Z" fill="white"/>
</mask>
<g mask="url(#mask0_402_283)">
<path id="Fill 19" fill-rule="evenodd" clip-rule="evenodd" d="M5.01575 2.55933C3.071 2.55933 2 3.59658 2 5.47983V12.2666C2 14.1911 3.071 15.2501 5.01575 15.2501H11.3593C13.304 15.2501 14.375 14.2106 14.375 12.3236V5.47983C14.378 4.55358 14.129 3.83358 13.6347 3.33858C13.1262 2.82858 12.3425 2.55933 11.366 2.55933H5.01575ZM11.3593 16.3751H5.01575C2.462 16.3751 0.875 14.8008 0.875 12.2666V5.47983C0.875 2.98383 2.462 1.43433 5.01575 1.43433H11.366C12.6477 1.43433 13.7075 1.81833 14.4313 2.54358C15.134 3.24933 15.5037 4.26408 15.5 5.48133V12.3236C15.5 14.8226 13.913 16.3751 11.3593 16.3751Z" fill="#666666"/>
</g>
</g>
</g>
</svg>
