<svg width="23" height="23" viewBox="0 0 23 23" fill="none" xmlns="http://www.w3.org/2000/svg">
<g id="Sports / Fitness / fitness-dumbbell-lift">
<g id="Group">
<g id="Regular">
<path id="Rectangle-path" fill-rule="evenodd" clip-rule="evenodd" d="M3.69275 6H7.8466V8.76923H3.69275V6Z" stroke="#3D3D3D" stroke-width="1.5" stroke-linecap="round" stroke-linejoin="round"/>
<path id="Shape" d="M7.84659 19.8462L8.9949 15.2548C9.13672 14.6869 8.90611 14.0912 8.4189 13.7668C7.61157 13.2287 7.06319 12.3802 6.90413 11.4231L6.46198 8.76923H7.84659V6C7.84659 5.2353 8.4665 4.61538 9.23121 4.61538H14.7697C15.5344 4.61538 16.1543 5.2353 16.1543 6V10.8462C16.1322 11.7675 15.9627 12.6794 15.6521 13.5471C15.5274 14.0465 15.5274 14.5689 15.6521 15.0683L16.8466 19.8462" stroke="#3D3D3D" stroke-width="1.5" stroke-linecap="round" stroke-linejoin="round"/>
<path id="Shape_2" fill-rule="evenodd" clip-rule="evenodd" d="M2.30814 2.53846C1.54344 2.53846 0.923523 3.15837 0.923523 3.92308V11.5385C0.923523 12.3032 1.54344 12.9231 2.30814 12.9231C3.07284 12.9231 3.69275 12.3032 3.69275 11.5385V3.92308C3.69275 3.15837 3.07284 2.53846 2.30814 2.53846Z" stroke="#3D3D3D" stroke-width="1.5" stroke-linecap="round" stroke-linejoin="round"/>
<path id="Shape_3" fill-rule="evenodd" clip-rule="evenodd" d="M20.3081 2.53846C19.5434 2.53846 18.9235 3.15837 18.9235 3.92308V11.5385C18.9235 12.3032 19.5434 12.9231 20.3081 12.9231C21.0728 12.9231 21.6928 12.3032 21.6928 11.5385V3.92308C21.6928 3.15837 21.0728 2.53846 20.3081 2.53846Z" stroke="#3D3D3D" stroke-width="1.5" stroke-linecap="round" stroke-linejoin="round"/>
<path id="Rectangle-path_2" fill-rule="evenodd" clip-rule="evenodd" d="M16.1543 6H18.9235V8.76923H16.1543V6Z" stroke="#3D3D3D" stroke-width="1.5" stroke-linecap="round" stroke-linejoin="round"/>
<path id="Shape_4" d="M10.6158 7.38461V4.61538" stroke="#3D3D3D" stroke-width="1.5" stroke-linecap="round" stroke-linejoin="round"/>
<path id="Shape_5" d="M13.3851 7.38461V4.61538" stroke="#3D3D3D" stroke-width="1.5" stroke-linecap="round" stroke-linejoin="round"/>
</g>
</g>
</g>
</svg>
