<svg width="16" height="16" viewBox="0 0 16 16" fill="none" xmlns="http://www.w3.org/2000/svg">
<g id="Setting">
<g id="Group 3">
<mask id="mask0_402_6" style="mask-type:luminance" maskUnits="userSpaceOnUse" x="0" y="0" width="16" height="16">
<path id="Clip 2" fill-rule="evenodd" clip-rule="evenodd" d="M0.875 0.000366211H15.3386V15.5411H0.875V0.000366211Z" fill="white"/>
</mask>
<g mask="url(#mask0_402_6)">
<path id="Fill 1" fill-rule="evenodd" clip-rule="evenodd" d="M4.77665 11.5804C4.9484 11.5804 5.12015 11.6021 5.28815 11.6471C5.79515 11.7836 6.2354 12.1226 6.4964 12.5779C6.6659 12.8636 6.75965 13.1974 6.76265 13.5379C6.76265 14.0254 7.15415 14.4161 7.63565 14.4161H8.5754C9.05465 14.4161 9.44615 14.0276 9.4484 13.5484C9.4454 13.0189 9.6524 12.5156 10.0311 12.1369C10.4046 11.7634 10.9266 11.5391 11.4486 11.5541C11.7906 11.5624 12.1199 11.6546 12.4101 11.8196C12.8279 12.0589 13.3611 11.9164 13.6026 11.5039L14.1006 10.6736C14.2116 10.4824 14.2439 10.2424 14.1846 10.0211C14.1261 9.79987 13.9791 9.60787 13.7811 9.49462C13.3176 9.22762 12.9869 8.79712 12.8496 8.28112C12.7139 7.77487 12.7881 7.22212 13.0529 6.76687C13.2254 6.46687 13.4781 6.21412 13.7811 6.04012C14.1876 5.80237 14.3301 5.27062 14.0939 4.85662C14.0841 4.84012 14.0751 4.82287 14.0676 4.80487L13.6281 4.04287C13.3889 3.62662 12.8564 3.48337 12.4386 3.72112C11.9871 3.98812 11.4501 4.06462 10.9341 3.92887C10.4189 3.79537 9.9869 3.46912 9.71765 3.00862C9.54515 2.72062 9.4514 2.38537 9.4484 2.04412C9.45515 1.78762 9.36515 1.55737 9.20165 1.38862C9.0389 1.22062 8.81015 1.12537 8.5754 1.12537H7.63565C7.40315 1.12537 7.18565 1.21612 7.0214 1.37962C6.8579 1.54387 6.76865 1.76212 6.77015 1.99462C6.7544 3.09112 5.85815 3.97387 4.7729 3.97387C4.4249 3.97012 4.08965 3.87637 3.79865 3.70237C3.3899 3.46987 2.8559 3.61312 2.61665 4.02937L2.1089 4.86412C1.8764 5.26762 2.0189 5.80087 2.4329 6.04162C3.04715 6.39712 3.4304 7.06012 3.4304 7.77112C3.4304 8.48212 3.04715 9.14437 2.4314 9.50062C2.01965 9.73912 1.87715 10.2694 2.11565 10.6819L2.5889 11.4979C2.7059 11.7086 2.89715 11.8609 3.1184 11.9231C3.3389 11.9846 3.5819 11.9584 3.7844 11.8459C4.08215 11.6711 4.42865 11.5804 4.77665 11.5804ZM8.5754 15.5411H7.63565C6.5339 15.5411 5.63765 14.6456 5.63765 13.5439C5.63615 13.4081 5.59715 13.2671 5.5244 13.1449C5.40665 12.9394 5.21615 12.7924 4.9964 12.7339C4.77815 12.6754 4.5389 12.7076 4.3424 12.8216C3.8714 13.0841 3.31715 13.1479 2.81015 13.0054C2.3039 12.8621 1.86665 12.5141 1.61015 12.0529L1.1414 11.2451C0.593148 10.2941 0.919398 9.07537 1.8689 8.52637C2.13815 8.37112 2.3054 8.08162 2.3054 7.77112C2.3054 7.46062 2.13815 7.17037 1.8689 7.01512C0.918648 6.46312 0.593148 5.24137 1.14065 4.29037L1.64915 3.45562C2.1899 2.51512 3.4124 2.18362 4.36565 2.73112C4.4954 2.80837 4.6364 2.84737 4.77965 2.84887C5.2469 2.84887 5.63765 2.46337 5.64515 1.98937C5.64215 1.46662 5.8484 0.964866 6.22415 0.586116C6.6014 0.208116 7.1024 0.000366211 7.63565 0.000366211H8.5754C9.1124 0.000366211 9.6344 0.220866 10.0086 0.604116C10.3821 0.989616 10.5884 1.51837 10.5726 2.05462C10.5741 2.17537 10.6139 2.31487 10.6859 2.43712C10.8051 2.63962 10.9934 2.78212 11.2169 2.84062C11.4404 2.89612 11.6744 2.86612 11.8731 2.74837C12.8331 2.20012 14.0549 2.52862 14.6031 3.48112L15.0704 4.29037C15.0824 4.31212 15.0929 4.33312 15.1019 4.35487C15.5984 5.29312 15.2669 6.47437 14.3444 7.01362C14.2101 7.09087 14.1014 7.19887 14.0264 7.32937C13.9101 7.53112 13.8779 7.77112 13.9364 7.99162C13.9964 8.21662 14.1396 8.40337 14.3414 8.51887C14.7966 8.78062 15.1364 9.22162 15.2721 9.73087C15.4079 10.2394 15.3336 10.7914 15.0689 11.2466L14.5709 12.0761C14.0226 13.0181 12.8009 13.3444 11.8506 12.7954C11.7239 12.7226 11.5776 12.6829 11.4321 12.6791H11.4276C11.2109 12.6791 10.9881 12.7714 10.8261 12.9326C10.6619 13.0969 10.5719 13.3159 10.5734 13.5484C10.5681 14.6501 9.6719 15.5411 8.5754 15.5411Z" fill="#666666"/>
</g>
</g>
<path id="Fill 4" fill-rule="evenodd" clip-rule="evenodd" d="M8.10884 6.35593C7.32884 6.35593 6.69434 6.99118 6.69434 7.77118C6.69434 8.55118 7.32884 9.18493 8.10884 9.18493C8.88884 9.18493 9.52334 8.55118 9.52334 7.77118C9.52334 6.99118 8.88884 6.35593 8.10884 6.35593ZM8.10884 10.3099C6.70859 10.3099 5.56934 9.17143 5.56934 7.77118C5.56934 6.37093 6.70859 5.23093 8.10884 5.23093C9.50909 5.23093 10.6483 6.37093 10.6483 7.77118C10.6483 9.17143 9.50909 10.3099 8.10884 10.3099Z" fill="#666666"/>
</g>
</svg>
